<?xml version="1.0" encoding="iso-8859-1"?>
<!-- Generator: Adobe Illustrator 19.0.0, SVG Export Plug-In . SVG Version: 6.00 Build 0)  -->
<svg version="1.1" id="Capa_1" xmlns="http://www.w3.org/2000/svg" xmlns:xlink="http://www.w3.org/1999/xlink" x="0px" y="0px"
	 viewBox="0 0 512 512" style="enable-background:new 0 0 512 512;" xml:space="preserve">
<circle style="fill:#1A2B63;" cx="256" cy="267" r="245"/>
<g>
	<path style="fill:#37C47A;" d="M447.768,167.618H285.363l-25.449,44.253c-1.008,1.754-2.891,2.844-4.914,2.844
		s-3.906-1.09-4.914-2.844l-25.448-44.253H64.232c-8.975,0-16.25,7.275-16.25,16.25v224.271c0,8.975,7.275,16.25,16.25,16.25
		h383.535c8.975,0,16.25-7.275,16.25-16.25V183.868C464.018,174.894,456.742,167.618,447.768,167.618z"/>
	<path style="fill:#37C47A;" d="M442.768,183.868h-166.75l-16.104,28.003c-1.008,1.754-2.891,2.844-4.914,2.844
		s-3.906-1.09-4.914-2.844l-16.104-28.003H69.232c-2.75,0-5,2.25-5,5v214.271c0,2.75,2.25,5,5,5h373.535c2.75,0,5-2.25,5-5V188.868
		C447.768,186.118,445.518,183.868,442.768,183.868z"/>
</g>
<g>
	<path style="fill:#02AF8E;" d="M90.419,403.139v-60.304H64.232v60.304c0,2.75,2.25,5,5,5h26.187
		C92.669,408.139,90.419,405.889,90.419,403.139z"/>
	<path style="fill:#02AF8E;" d="M90.419,188.868c0-2.75,2.25-5,5-5H69.232c-2.75,0-5,2.25-5,5v88.16h26.187
		C90.419,277.028,90.419,188.868,90.419,188.868z"/>
</g>
<path style="fill:#2BB381;" d="M164.817,277.028H64.232v65.807h63.417c6.703,0,12.188-4.936,12.188-10.969
	c0-6.031-5.484-10.967-12.188-10.967h-22.248c-6.702,0-12.185-4.936-12.185-10.968c0-6.033,5.482-10.968,12.185-10.968h59.416
	c6.7,0,12.185-4.936,12.185-10.968S171.518,277.028,164.817,277.028z"/>
<path style="fill:#69CDFF;" d="M323.166,379.288c-22.964,0-41.582-18.618-41.582-41.584c0-22.964,18.618-41.58,41.582-41.58
	c0.366,0,0.728,0.019,1.091,0.027V183.868h-48.239l-16.104,28.003c-1.008,1.754-2.891,2.844-4.914,2.844s-3.906-1.09-4.914-2.844
	l-16.104-28.003h-46.239v38.089c2.19-0.795,4.542-1.25,7.007-1.25c11.368,0,20.584,9.215,20.584,20.583
	c0,11.367-9.216,20.583-20.584,20.583c-2.465,0-4.816-0.455-7.007-1.25v92.907c2.105-1.074,4.481-1.692,7.007-1.692
	c8.535,0,15.453,6.918,15.453,15.452s-6.918,15.452-15.453,15.452c-2.525,0-4.902-0.618-7.007-1.692v27.089h136.514v-28.878
	C323.894,379.27,323.532,379.288,323.166,379.288z"/>
<path style="fill:#3EB7FF;" d="M187.743,221.957c2.19-0.795,4.542-1.25,7.007-1.25c11.368,0,20.584,9.215,20.584,20.583
	c0,11.367-9.216,20.583-20.584,20.583c-2.465,0-4.816-0.455-7.007-1.25v92.907c2.105-1.074,4.481-1.692,7.007-1.692
	c8.535,0,15.453,6.918,15.453,15.452s-6.918,15.452-15.453,15.452c-2.525,0-4.902-0.618-7.007-1.692v27.089h33.686V183.868h-33.686
	V221.957z"/>
<path style="fill:#2BB381;" d="M447.768,253.012h-158.82c-7.641,0-13.893,5.627-13.893,12.504c0,6.877,6.252,12.502,13.893,12.502
	h158.82V253.012z"/>
<circle style="fill:#3EB7FF;" cx="323.17" cy="337.7" r="41.582"/>
<path style="fill:#52BBEF;" d="M301.427,337.704c0-19.544,13.488-35.929,31.661-40.38c-3.181-0.778-6.502-1.2-9.922-1.2
	c-22.964,0-41.582,18.616-41.582,41.58c0,22.966,18.618,41.584,41.582,41.584c3.42,0,6.741-0.422,9.922-1.2
	C314.915,373.637,301.427,357.249,301.427,337.704z"/>
<circle style="fill:#2BB381;" cx="194.75" cy="241.29" r="20.583"/>
<circle style="fill:#FFE2B8;" cx="194.75" cy="367.29" r="15.453"/>
<circle style="fill:#69CDFF;" cx="399.87" cy="228.15" r="20.583"/>
<path style="fill:#0F9390;" d="M442.768,176.368H280.331l-8.626,15h45.052v97.688c-23.654,3.1-42.052,23.098-42.643,47.443H260.5
	V248c0-6.893-5.607-12.5-12.5-12.5h-25.77c-2.126-10.102-9.696-18.215-19.487-21.128v-23.004h35.552l-8.625-15H69.232
	c-6.893,0-12.5,5.607-12.5,12.5v214.271c0,6.893,5.607,12.5,12.5,12.5h373.535c6.893,0,12.5-5.607,12.5-12.5V188.868
	C455.268,181.976,449.66,176.368,442.768,176.368z M331.757,235.645h41.061c2.626,9.465,10.093,16.932,19.558,19.559V334.5h-20.243
	c-1.471-22.689-18.422-41.214-40.375-45.107v-53.748H331.757z M386.792,228.145c0-7.214,5.869-13.082,13.083-13.082
	c7.215,0,13.084,5.868,13.084,13.082c0,7.215-5.869,13.084-13.084,13.084C392.661,241.229,386.792,235.359,386.792,228.145z
	 M207.834,241.29c0,7.214-5.869,13.083-13.084,13.083c-7.214,0-13.083-5.869-13.083-13.083s5.869-13.083,13.083-13.083
	C201.965,228.207,207.834,234.076,207.834,241.29z M71.732,191.368H113.5V229.5H71.732V191.368z M71.732,244.5H116
	c6.893,0,12.5-5.607,12.5-12.5v-40.632h59.243v22.724c-12.106,3.121-21.076,14.131-21.076,27.198s8.97,24.077,21.076,27.198v76.947
	c-7.589,2.44-13.464,8.727-15.321,16.556H71.732V244.5z M130.569,400.639H71.732v-23.647h58.837V400.639z M187.743,400.639h-42.174
	v-23.647h28.386c2.689,5.741,7.685,10.192,13.788,12.153V400.639z M194.75,375.242c-4.385,0-7.952-3.567-7.952-7.952
	s3.567-7.952,7.952-7.952c4.386,0,7.953,3.567,7.953,7.952C202.703,371.675,199.136,375.242,194.75,375.242z M316.757,400.639
	H202.743v-11.834c8.727-3.253,14.96-11.668,14.96-21.515c0-9.847-6.233-18.262-14.96-21.515v-77.567
	c8.658-2.575,15.575-9.22,18.532-17.708H245.5V339c0,6.893,5.607,12.5,12.5,12.5h18.071c5.394,18.381,21.269,32.31,40.686,34.855
	V400.639z M289.084,337.704c0-18.792,15.289-34.08,34.082-34.08s34.082,15.288,34.082,34.08c0,18.794-15.289,34.084-34.082,34.084
	C304.373,371.788,289.084,356.498,289.084,337.704z M440.268,400.639H331.757V386.02c19.108-3.389,34.428-17.86,39.049-36.52h69.462
	V400.639z M440.268,334.5h-32.893v-79.297c9.465-2.627,16.932-10.094,19.559-19.559h13.334V334.5z M440.268,220.645h-13.334
	c-3.29-11.854-14.171-20.582-27.059-20.582s-23.768,8.729-27.058,20.582h-41.061v-29.276h108.511L440.268,220.645L440.268,220.645z"
	/>
<path style="fill:#FFAF10;" d="M322.746,453.488H189.254c-4.143,0-7.5-3.357-7.5-7.5s3.357-7.5,7.5-7.5h133.492
	c4.143,0,7.5,3.357,7.5,7.5S326.889,453.488,322.746,453.488z"/>
<g>
	<circle style="fill:#FFD00D;" cx="224.5" cy="476.49" r="7.5"/>
	<circle style="fill:#FFD00D;" cx="256" cy="476.49" r="7.5"/>
	<circle style="fill:#FFD00D;" cx="287.5" cy="476.49" r="7.5"/>
	<circle style="fill:#FFD00D;" cx="104.51" cy="126.5" r="7.5"/>
	<circle style="fill:#FFD00D;" cx="136.01" cy="126.5" r="7.5"/>
	<circle style="fill:#FFD00D;" cx="167.5" cy="126.5" r="7.5"/>
	<circle style="fill:#FFD00D;" cx="344.5" cy="126.5" r="7.5"/>
	<circle style="fill:#FFD00D;" cx="375.99" cy="126.5" r="7.5"/>
	<circle style="fill:#FFD00D;" cx="407.49" cy="126.5" r="7.5"/>
</g>
<path style="fill:#FE3745;" d="M255,215.715c-2.387,0-4.592-1.275-5.781-3.346l-56.994-99.109
	c-7.363-11.765-11.256-25.326-11.256-39.229C180.969,33.209,214.18,0,255,0s74.031,33.209,74.031,74.031
	c0,13.902-3.893,27.464-11.256,39.229l-56.994,99.109C259.592,214.439,257.387,215.715,255,215.715z"/>
<path style="fill:#B7092B;" d="M212.067,113.26c-7.363-11.765-11.256-25.326-11.256-39.229c0-37.456,27.967-68.483,64.11-73.348
	C261.674,0.247,258.366,0,255,0c-40.82,0-74.031,33.209-74.031,74.031c0,13.902,3.893,27.464,11.256,39.229l56.994,99.109
	c1.189,2.07,3.395,3.346,5.781,3.346c2.387,0,4.592-1.275,5.781-3.346l4.141-7.199L212.067,113.26z"/>
<circle style="fill:#FFFFFF;" cx="255" cy="74.03" r="44.46"/>
<circle style="fill:#FE3745;" cx="255" cy="74.03" r="26.986"/>
<path style="fill:#B7092B;" d="M247.857,74.031c0-11.4,7.071-21.142,17.064-25.096c-3.072-1.217-6.418-1.892-9.922-1.892
	c-14.903,0-26.985,12.082-26.985,26.987c0,14.904,12.082,26.986,26.985,26.986c3.504,0,6.85-0.676,9.922-1.891
	C254.929,95.172,247.857,85.431,247.857,74.031z"/>
<g>
</g>
<g>
</g>
<g>
</g>
<g>
</g>
<g>
</g>
<g>
</g>
<g>
</g>
<g>
</g>
<g>
</g>
<g>
</g>
<g>
</g>
<g>
</g>
<g>
</g>
<g>
</g>
<g>
</g>
</svg>
